# xmcd
# 
# Track frame offsets:
#     150
#     14710
#     36198
#     54090
#     71503
#     85295
#     89485
#     103659
#     116287
#     138138
#     157551
#     165092
#     185025
#     201986
#     215908
#     229536
# 
# Disc length: 3208
# 
# Revision: 7
# Processed by: cddbd v1.5.2PL0 Copyright (c) Steve Scherf et al.
# Submitted via: BonkEnc v1.0.15
# 
DISCID=cd0c8610
DTITLE=SUM 41 - Underclass Hero
DYEAR=2007
DGENRE=Punk Rock
TTITLE0=Underclass Hero
TTITLE1=Walking Disaster
TTITLE2=Speak Of The Devil
TTITLE3=Dear Father
TTITLE4=Count Your Last Blessigngs
TTITLE5=Ma Poubelle
TTITLE6=March Of The Dogs
TTITLE7=The Jester
TTITLE8=With Me
TTITLE9=Pull The Curtain
TTITLE10=King Of Contradiction
TTITLE11=Best Of Me
TTITLE12=Confusion And Frustration In Modern Times
TTITLE13=So Long Goodbye
TTITLE14=No Apologies
TTITLE15=This Is Goodbye
EXTD=YEAR: 2007
EXTT0=
EXTT1=
EXTT2=
EXTT3=
EXTT4=
EXTT5=
EXTT6=
EXTT7=
EXTT8=
EXTT9=
EXTT10=
EXTT11=
EXTT12=
EXTT13=
EXTT14=
EXTT15=
PLAYORDER=
